<svg id="Layer_1" data-name="Layer 1" xmlns="http://www.w3.org/2000/svg" viewBox="0 0 234.27 301.63"><defs><style>.cls-1{fill:#feed76;}.cls-2{fill:#231f20;}.cls-3{fill:#ee6a6a;}</style></defs><path class="cls-1" d="M118.5,277.9a95.92,95.92,0,0,1-95.81-95.65c-.28-4.71-3.24-71.37,46.39-136.28,14.57-19,25-27.53,33.74-27.53,7.59,0,12.8,6,15.48,17.76,2,8.61,2.57,19.42,3.16,29.87.45,8.08.88,15.72,1.9,21.11,2.45,13,6.49,17.64,9.44,17.64,2.13,0,4.87-1.95,7.15-5.09,1.79-2.45,4-7.12,6.41-12.06C152.45,75,158.2,63.08,166.67,63.08c2.32,0,5.7.94,8.67,5.39,5.46,8.19,5.27,21.65,5.06,35.89-.18,12.23-.37,24.88,3.44,30.91,3.3,5.22,7.74,11,12,16.52,7.95,10.28,15.45,20,18.21,28.81,5.9,18.86,2.22,38.06-10.62,55.53C185.09,261.11,151,277.9,118.5,277.9Z"/><path class="cls-2" d="M102.82,23.44c15.79,0,11.9,44.91,15.63,64.67,3,16,8.7,21.71,14.35,21.71,4.08,0,8.15-3,11.19-7.15,6.1-8.37,14.65-34.59,22.68-34.59,1.53,0,3,1,4.51,3.16,9.2,13.8-.77,52.13,8.43,66.7s25.73,31.45,29.7,44.15c15,47.87-40.66,90.81-90.81,90.81a90.81,90.81,0,0,1-90.81-90.81S23.23,114.17,73.06,49c14.15-18.5,23.5-25.57,29.76-25.57m0-10c-10.62,0-21.9,8.82-37.71,29.5A234.42,234.42,0,0,0,21.89,138c-5,24.42-4.35,41.62-4.2,44.39A100.92,100.92,0,0,0,118.5,282.9c34,0,69.73-17.61,89-43.81,13.63-18.53,17.66-39.83,11.36-60-3-9.68-10.79-19.74-19-30.38-4.22-5.46-8.59-11.11-11.76-16.13-3-4.77-2.83-17.74-2.67-28.16.22-15,.42-29.26-5.9-38.74-4.41-6.63-9.94-7.62-12.83-7.62-11.62,0-18,13.32-24.82,27.42-2.17,4.53-4.42,9.2-5.94,11.29a10.84,10.84,0,0,1-2.79,2.78c-.93-1.06-3.16-4.39-4.85-13.32-1-5.07-1.37-12.55-1.82-20.46-.6-10.66-1.22-21.68-3.28-30.7-4.07-17.89-13.31-21.65-20.35-21.65Z"/><path class="cls-3" d="M119.05,258.92a53.45,53.45,0,0,1-53.38-53.23c-.17-3.18-1.51-39.17,25.2-74.1C99.23,120.67,105.16,116,110.7,116c10.71,0,11.53,14.65,12.26,27.58a98.69,98.69,0,0,0,1,10.94c1,5.45,2.43,7.08,2.85,7.45a5.25,5.25,0,0,0,1.8-1.7,50.22,50.22,0,0,0,3.2-6.06c3.57-7.42,6.94-14.43,12.93-14.43,1.47,0,4.29.51,6.56,3.91,3.31,5,3.2,12.49,3.09,20.46-.08,5.59-.19,12.56,1.47,15.18s4,5.7,6.29,8.62c4.36,5.65,8.48,11,10.08,16.08,3.32,10.64,1.19,21.88-6,31.67C156,249.59,137.05,258.92,119.05,258.92Z"/><path class="cls-2" d="M110.7,121c8.41,0,6.34,23.92,8.33,34.45,1.61,8.54,4.63,11.57,7.64,11.57,2.18,0,4.35-1.58,6-3.81,3.24-4.46,7.8-18.43,12.08-18.43a3,3,0,0,1,2.4,1.69c4.9,7.35-.41,27.77,4.49,35.53s13.71,16.76,15.83,23.52c8,25.51-21.67,48.39-48.39,48.39a48.39,48.39,0,0,1-48.38-48.39s-2.38-36.18,24.17-70.9c7.54-9.86,12.53-13.62,15.86-13.62m0-10c-7.28,0-14.39,5.25-23.8,17.55-27.36,35.77-26.44,72.89-26.23,77.26a58.45,58.45,0,0,0,58.38,58.1c19.51,0,40.08-10.15,51.18-25.25,8.16-11.1,10.56-23.93,6.75-36.12-1.86-6-6.25-11.64-10.9-17.65-2.26-2.93-4.4-5.7-6-8.17-.9-1.89-.8-8.53-.74-12.5.12-8.38.25-17-3.93-23.3-3.56-5.34-8.25-6.14-10.72-6.14-8.29,0-12.69,7.56-16.34,15-.17-2-.3-4.25-.43-6.48-.33-5.87-.67-11.94-1.85-17.13a24.61,24.61,0,0,0-3.64-8.86A14.12,14.12,0,0,0,110.7,111Z"/><path d="M139.38,206l5.22-3c-.2-8.12-2.46-14.53-5.22-14.53s-5.24,7-5.24,15.73,2.34,15.73,5.24,15.73c2.35,0,4.34-4.66,5-11.06Z"/><path d="M94.31,208.92a8.18,8.18,0,0,1,1.12-8.39,10.61,10.61,0,0,1,16.78,0,8.2,8.2,0,0,1,1.12,8.4,12.26,12.26,0,0,0-4.46-5.06,9.56,9.56,0,0,0-10.11,0A12.21,12.21,0,0,0,94.31,208.92Z"/><path d="M127.23,229.57c-1.84,0-3.68,0-5.5,0l-2.72-.25-1.35-.13c-.45-.06-.9-.16-1.34-.24l-2.66-.5c-.86-.23-1.72-.5-2.58-.74a30.44,30.44,0,0,1-9.34-4.72,21,21,0,0,1-2-1.67l-.91-.88-.84-.95a10.47,10.47,0,0,1-.78-1,9.7,9.7,0,0,1-.71-1c-.22-.34-.45-.68-.63-1-.09-.17-.2-.35-.27-.51s-.17-.36-.19-.43a2.92,2.92,0,0,0-.21-.56,2.52,2.52,0,0,0-.64-.8c.66-.17,1.36-.31,2.13-.54a5.85,5.85,0,0,0-1.31-.63,5.73,5.73,0,0,0-1.43-.26,6.3,6.3,0,0,0-2.92.51A6.23,6.23,0,0,0,88.71,215a4.9,4.9,0,0,0-1.14,2.67,30.35,30.35,0,0,1,2.91-1.93,2.55,2.55,0,0,0,.25,1.5l.17.33c.19.36.32.55.47.8s.3.44.46.66c.29.44.63.83,1,1.23s.67.78,1,1.15.69.74,1.07,1.07l1.12,1,1.19.91A24,24,0,0,0,99.64,226a33.25,33.25,0,0,0,10.83,4c.94.16,1.88.34,2.81.47l2.83.21c.47,0,.94.08,1.41.09l1.41,0,2.8-.06c1.86-.15,3.72-.37,5.55-.58l5.46-1.05Z"/></svg>