<svg id="Layer_1" data-name="Layer 1" xmlns="http://www.w3.org/2000/svg" viewBox="0 0 389.99 99.47"><defs><style>.cls-1{fill:#ee6a6a;}.cls-2{fill:#fdde3c;}</style></defs><path class="cls-1" d="M64.36,24.47a21.46,21.46,0,0,1,2.11,9.59,21.24,21.24,0,0,1-2.11,9.56,18.76,18.76,0,0,1-5.45,6.79q-6.75,5.21-14,5.21H34.75v9.19a23.94,23.94,0,0,1-.12,2.8,6.58,6.58,0,0,1-.77,2.16Q32.72,72,27.51,72q-5.69,0-6.67-3a13.77,13.77,0,0,1-.48-4.22V19.59a24.14,24.14,0,0,1,.12-2.81,6.54,6.54,0,0,1,.77-2.15c.76-1.47,2.88-2.2,6.34-2.2H45q7.16,0,13.91,5.2A18.78,18.78,0,0,1,64.36,24.47Zm-14.56,15a6.31,6.31,0,0,0,2.36-5.37,6.41,6.41,0,0,0-2.36-5.4,7.89,7.89,0,0,0-4.88-1.83H34.75V41.22H45A7.92,7.92,0,0,0,49.8,39.43Z"/><path class="cls-1" d="M110.79,29.67q4.8,2.11,4.8,5.13a6,6,0,0,1-.65,2.76c-.43.87-.65,1.33-.65,1.38L93,86.6c-.43,1-.8,1.82-1.09,2.36a5.12,5.12,0,0,1-1.43,1.55,3.93,3.93,0,0,1-2.44.73A12.38,12.38,0,0,1,83.71,90q-4.8-2.11-4.8-5,0-2,7.81-18.63L70.54,39.11a9,9,0,0,1-1.63-4c0-1.73,1.46-3.47,4.39-5.2a9.47,9.47,0,0,1,4.31-1.63,4.49,4.49,0,0,1,2.52.65,4.91,4.91,0,0,1,1.43,1.34c.29.46,1.79,3,4.47,7.57s5.25,8.85,7.69,12.81q.41-1.3,4.39-10t4.27-9.31a8.32,8.32,0,0,1,.93-1.38,3.55,3.55,0,0,1,3-1.39A11.56,11.56,0,0,1,110.79,29.67Z"/><path class="cls-1" d="M145.93,29.67a5.51,5.51,0,0,1,2.56,1.67,5.73,5.73,0,0,1,1,3.78A12.85,12.85,0,0,1,148,40.81q-1.54,3.09-4.47,3.09a6.29,6.29,0,0,1-2.81-.65,8.18,8.18,0,0,0-3.53-.65A6.41,6.41,0,0,0,133,44.15a4.65,4.65,0,0,0-1.91,3.74V65a21.67,21.67,0,0,1-.13,2.81,6.32,6.32,0,0,1-.77,2.15c-.81,1.41-2.93,2.11-6.34,2.11q-3.9,0-5.61-1.38a4.87,4.87,0,0,1-1.47-3.49V36.26a24.14,24.14,0,0,1,.12-2.81,6.93,6.93,0,0,1,.7-2.07c.75-1.46,2.87-2.2,6.34-2.2,3.25,0,5.29.63,6.1,1.87a4.68,4.68,0,0,1,.89,2.69,13.84,13.84,0,0,1,1.18-1.38,14.93,14.93,0,0,1,3.3-2.2,9.49,9.49,0,0,1,4.43-1.38,22.14,22.14,0,0,1,3.21.2A20.85,20.85,0,0,1,145.93,29.67Z"/><path class="cls-1" d="M153.9,34.55a22.35,22.35,0,0,1,31.15,0,21,21,0,0,1,6.75,16.06,21.14,21.14,0,0,1-3.5,12,21.92,21.92,0,0,1-8.5,7.73,23.1,23.1,0,0,1-10.37,2.48A22.06,22.06,0,0,1,159,70.13a23.13,23.13,0,0,1-8.5-7.8,20.56,20.56,0,0,1-3.45-11.67A21,21,0,0,1,153.9,34.55Zm10.16,21.92a8.65,8.65,0,0,0,5.29,2,8.84,8.84,0,0,0,5.37-2,7.07,7.07,0,0,0,2.68-6,7.05,7.05,0,0,0-2.52-5.94,8.74,8.74,0,0,0-5.45-1.95,8.5,8.5,0,0,0-5.45,2,7.2,7.2,0,0,0-2.52,6A7,7,0,0,0,164.06,56.47Z"/><path class="cls-2" d="M235.55,14.63a3.56,3.56,0,0,1,2.2-1.71,13,13,0,0,1,3.9-.49,13.77,13.77,0,0,1,3.74.41,6.47,6.47,0,0,1,2.12,1,3.69,3.69,0,0,1,1.14,1.63,16.27,16.27,0,0,1,.4,4.23V64.81a23.94,23.94,0,0,1-.12,2.8,6.58,6.58,0,0,1-.77,2.16c-.76,1.46-2.88,2.19-6.34,2.19q-5.7,0-6.67-3a13.4,13.4,0,0,1-.49-4.22V48.21H213.11v16.6a21.5,21.5,0,0,1-.13,2.8,6.58,6.58,0,0,1-.77,2.16Q211.07,72,205.87,72q-5.7,0-6.67-3a13.4,13.4,0,0,1-.49-4.22V19.59a24.14,24.14,0,0,1,.12-2.81,6.54,6.54,0,0,1,.77-2.15q1.14-2.2,6.35-2.2,5.69,0,6.75,3a16.18,16.18,0,0,1,.41,4.23V36.26h21.55V19.59a24.14,24.14,0,0,1,.12-2.81A6.54,6.54,0,0,1,235.55,14.63Z"/><path class="cls-2" d="M280.12,33.74q.5-4.56,6.43-4.56a17,17,0,0,1,4.71.49,3.46,3.46,0,0,1,2.16,1.71,6.79,6.79,0,0,1,.73,2.16,23.82,23.82,0,0,1,.12,2.8V64.81a23.94,23.94,0,0,1-.12,2.8,7.5,7.5,0,0,1-.69,2.16q-1.14,2.12-5.57,2.11c-3,0-4.94-.36-5.94-1.1a4.42,4.42,0,0,1-1.75-3.21q-3,4.32-10,4.31T257.1,65.46a21.18,21.18,0,0,1-6-14.93,21,21,0,0,1,6.06-14.88q6-6.39,13.29-6.38a12.7,12.7,0,0,1,5.05,1,11.32,11.32,0,0,1,3.17,1.83A11.85,11.85,0,0,1,280.12,33.74Zm-14.8,16.92a6.73,6.73,0,0,0,2.11,4.83,6.91,6.91,0,0,0,5.13,2.16,6.46,6.46,0,0,0,5-2.2,7,7,0,0,0,2-4.84,7.54,7.54,0,0,0-1.91-4.92,6.35,6.35,0,0,0-5.12-2.27,6.61,6.61,0,0,0-5.21,2.27A7.4,7.4,0,0,0,265.32,50.66Z"/><path class="cls-2" d="M328.27,29.67a5.51,5.51,0,0,1,2.56,1.67,5.73,5.73,0,0,1,1,3.78,12.85,12.85,0,0,1-1.55,5.69q-1.55,3.09-4.47,3.09a6.29,6.29,0,0,1-2.81-.65,8.2,8.2,0,0,0-3.54-.65,6.4,6.4,0,0,0-4.1,1.55,4.66,4.66,0,0,0-1.92,3.74V65a24.14,24.14,0,0,1-.12,2.81,6.54,6.54,0,0,1-.77,2.15c-.81,1.41-2.93,2.11-6.34,2.11q-3.92,0-5.62-1.38a4.9,4.9,0,0,1-1.46-3.49V36.26a24.14,24.14,0,0,1,.12-2.81,6.61,6.61,0,0,1,.69-2.07c.76-1.46,2.88-2.2,6.35-2.2,3.25,0,5.28.63,6.1,1.87a4.75,4.75,0,0,1,.89,2.69,13.84,13.84,0,0,1,1.18-1.38,14.68,14.68,0,0,1,3.3-2.2,9.49,9.49,0,0,1,4.43-1.38,22.14,22.14,0,0,1,3.21.2A20.85,20.85,0,0,1,328.27,29.67Z"/><path class="cls-2" d="M373.57,45.49c0,3.34-.83,5.8-2.48,7.4a7.76,7.76,0,0,1-5.49,2.4H346.32c0,1.52.9,2.79,2.68,3.82a10.69,10.69,0,0,0,5.37,1.55,22.37,22.37,0,0,0,7.4-1l.9-.32a8.14,8.14,0,0,1,3.25-.9q2.61,0,4.47,3.66a8.93,8.93,0,0,1,1.06,3.74q0,7.24-17.32,7.24A26.22,26.22,0,0,1,343.43,71a18.1,18.1,0,0,1-7.27-5.49A23.37,23.37,0,0,1,331,50.82q0-10.24,6.63-16.39a23.43,23.43,0,0,1,16.55-6.14q11.31,0,16.59,8A16.57,16.57,0,0,1,373.57,45.49Zm-17.16,2.4c2.06,0,3.09-.87,3.09-2.6a3.66,3.66,0,0,0-1.43-3A6.35,6.35,0,0,0,354,41.14a8.25,8.25,0,0,0-5.25,2.15q-2.6,2.16-2.6,4.6Z"/></svg>